<svg viewBox="0 0 400 300" xmlns="http://www.w3.org/2000/svg"><ellipse cx="200.96" cy="256.98" fill="#e6e6e6" opacity=".3" rx="114.41" ry="14.96"/><path d="m159.86 230.3h94.89l-18.3-45.11-32.4-.88s-45.22-13.41-44.19 45.99z" fill="#24285b"/><path d="m159.86 230.3h94.89l-18.3-45.11-32.4-.88s-45.22-13.41-44.19 45.99z" opacity=".27"/><path d="m187.77 179.24 4.93 69.95h9.96l2.55-71.74z" fill="#68e1fd"/><path d="m221.72 178.57-4.93 69.96h-9.96l-2.55-71.75z" fill="#68e1fd"/><path d="m225.98 168.17 17.4 45.15-32.1 5.47-7.76-37-7.03 37.52-31.78-2.29 10.81-48.85z" fill="#68e1fd"/><path d="m225.98 168.17 17.4 45.15-32.1 5.47-7.76-37-7.03 37.52-31.78-2.29 10.81-48.85z" opacity=".09"/><path d="m225.13 156.04.85 12.13h-50.46l.59-12.13z" fill="#ffd200"/><path d="m166.26 121.64 15.9 34.4h43.07l15.61-50.88-37.83-20.23z" fill="#68e1fd"/><path d="m166.26 121.64 15.9 34.4h43.07l15.61-50.88-37.83-20.23z" opacity=".09"/><path d="m195.47 50.74-1.83 27.56 15.26-.08-4.8-20.03z" fill="#f4a28c"/><path d="m205.34 62.53a10 10 0 0 1 -5.18-2.48s.67 5 6.66 9.47z" fill="#ce8172" opacity=".31"/><path d="m210.76 48.27s1 8.37-.2 14a4.23 4.23 0 0 1 -5.06 3.22c-2.83-.65-6.46-2.36-7.55-6.78l-2.77-7.27s-1.58-4.62 3-8.2 12.22-.1 12.58 5.03z" fill="#f4a28c"/><path d="m211.13 53.57 2.46 3.17a1.35 1.35 0 0 1 -.77 2.14l-3.2.72z" fill="#f4a28c"/><path d="m192 54.52 2.91 5.53 7.14-4.26s3-5.41 1.84-10.31c0 0 5.16-.95 6.92 3.35 0 0 2.51-5.35-1.2-9.29s-11.34-3-13.84 1c0 0-10.84 2.39-4.71 12.39.33.5.66 1.07.94 1.59z" fill="#24285b"/><path d="m202.06 55.79s-.18-3.25-2.61-2.91-2.2 5 1.13 5.34z" fill="#f4a28c"/><path d="m190 50.74a9.21 9.21 0 0 1 0 6.45c-1.33 3.32-4.39 6.77 1 8.41s9.45 4.11 9.24-7.38c0 0-2.66-1.19-2.33-5.37s-7.76-2.47-7.76-2.47" fill="#24285b"/><path d="m203.65 51.65s-2.43 8.35.89 10.22a6.43 6.43 0 0 0 6 .4s.36 2.71-2.11 3.33-8.76 1.14-8.29-7.38a11.43 11.43 0 0 0 1.48-4.65c.38-2.93 2.03-1.92 2.03-1.92z" fill="#24285b"/><path d="m152.07 108.64s-10 52.08 14.85 54 34-2.55 34-2.55l-.84-8.05s-24.18 3.58-21.88-16.72 2.68-30.38-7.66-31.79-18.47 5.11-18.47 5.11z" fill="#68e1fd"/><path d="m186.36 112.28s-6.78 62-10.84 83.81c-1.84 9.86-4 20.69-5.71 29.47a21.14 21.14 0 0 1 -21.47 17l-34.44-1.21s36.23-79.25 36.23-126.88z" fill="#24285b"/><path d="m211.16 59.25s-2.24.28-3.09 1.47c0 0 1.67-.12 3.09-.34z" fill="#24285b"/><path d="m242.41 100.77s8.85 33.7 2.72 42.72-31.69 6-31.69 6l-1.79-9.54s26.16-1.71 11-27.07 13.97-28.62 19.76-12.11z" fill="#68e1fd"/><path d="m209 78.48s-14.25-6.72-30-4.67-35.61 14.3-35.9 30.94 20.72 22.76 36.19 14.3c.02 0 37.12-14.75 29.71-40.57z" fill="#24285b"/><path d="m193.51 78.48s14.25-6.72 30-4.67 35.61 14.3 35.9 30.94-20.72 22.76-36.19 14.3c.01 0-37.09-14.75-29.71-40.57z" fill="#24285b"/><path d="m199.66 131.93h6.81v34.26h-6.81z" fill="#68e1fd" transform="matrix(.93451543 -.35592262 .35592262 .93451543 -39.75 82.03)"/><path d="m163.65 73.32 3.27-19.17 28.59 75.08-4.61 1.76z" fill="#68e1fd"/><path d="m163.65 73.32 3.27-19.17 28.59 75.08-4.61 1.76z" fill="#fff" opacity=".44"/><path d="m182.11 66.29-15.19-12.14 28.59 75.08 4.61-1.76z" fill="#68e1fd"/><path d="m182.11 66.29-15.19-12.14 28.59 75.08 4.61-1.76z" fill="#fff" opacity=".67"/><g fill="#24285b"><path d="m186.55 129.06h19.74v5.11h-19.74z" transform="matrix(.93451543 -.35592262 .35592262 .93451543 -33.98 78.52)"/><path d="m206.39 138.93s-16.77-.3-12.31 8.27 9.08 5.4 14.78 3.25l4.58-1s3.84-14.66-7.05-10.52z"/><path d="m198.78 150.63s6.88-5.66 11.22-2.16.92 12.13-8.53 13.15l-6 3.19-2.18-13.53z"/><path d="m190.24 230.3h13.09l-.74 25.79h-19.07l9.18-6.9z"/><path d="m219.25 230.3h-13.09l.74 25.79h19.07l-9.18-6.9z"/><path d="m214.1 110.23s7.81 64.07 11.87 85.86c1.95 10.44 4.21 22 6 31a19.33 19.33 0 0 0 19.63 15.53l36-1.26s-40.3-73.19-38.42-129.08z"/></g><path d="m150 118.58s14.59 10.84 34.14-1.82l1.36 2.89-1.26 11.35s-18.87 13.44-34.8-4.23c0-.01.35-4.51.56-8.19z" opacity=".12"/><path d="m214.65 114.72 1.68 13.39s20.12 12.77 33.18-1.79l-.29-5.84s-16.37 6.39-34.57-5.76z" opacity=".12"/></svg>